<svg version="1.1" xmlns="http://www.w3.org/2000/svg" xmlns:xlink="http://www.w3.org/1999/xlink" width="59.63889" height="19.77777" viewBox="0,0,59.63889,19.77777"><g transform="translate(-204.3556,-169.8334)"><g data-paper-data="{&quot;isPaintingLayer&quot;:true}" fill-rule="nonzero" stroke="none" stroke-linecap="butt" stroke-linejoin="miter" stroke-miterlimit="10" stroke-dasharray="" stroke-dashoffset="0" style="mix-blend-mode: normal"><path d="M216.0056,184.11117c0,-1.62944 0,-5.26575 0,-8.11111c0,-2.17567 1.25134,-3.88889 3.33919,-3.88889c9.45659,0 36.07438,0 41.31051,0c1.74807,0 3.33919,2.31519 3.33919,4c0,1.6636 0,5.31256 0,8.11111c0,2.0648 -1.59112,3.66667 -3.33919,3.66667c-5.23613,0 -31.85392,0 -41.31051,0c-2.08785,0 -3.33919,-2.16447 -3.33919,-3.77778z" fill="#000000" stroke-width="0"/><path d="M204.35561,179.72229c0,-5.46149 4.4274,-9.88888 9.88889,-9.88888c5.46149,0 9.88889,4.4274 9.88889,9.88888c0,5.46149 -4.4274,9.88889 -9.88889,9.88889c-5.46149,0 -9.88889,-4.4274 -9.88889,-9.88889z" fill="#000000" stroke-width="0"/><path d="M206.35561,179.72229c0,-4.35691 3.53198,-7.88888 7.88889,-7.88888c4.35691,0 7.88889,3.53197 7.88889,7.88888c0,4.35691 -3.53197,7.88889 -7.88889,7.88889c-4.35691,0 -7.88889,-3.53198 -7.88889,-7.88889z" fill="#ffffff" stroke-width="0"/><text transform="translate(223.30561,177.0696) scale(0.11935,0.11935)" font-size="40" xml:space="preserve" fill="#ffffff" fill-rule="nonzero" stroke="none" stroke-width="1" stroke-linecap="butt" stroke-linejoin="miter" stroke-miterlimit="10" stroke-dasharray="" stroke-dashoffset="0" font-family="Sans Serif" font-weight="normal" text-anchor="start" style="mix-blend-mode: normal"><tspan x="0" dy="0">Candy Star</tspan></text><text transform="translate(223.5056,179.92752) scale(0.06677,0.06677)" font-size="40" xml:space="preserve" fill="#ffffff" fill-rule="nonzero" stroke="none" stroke-width="1" stroke-linecap="butt" stroke-linejoin="miter" stroke-miterlimit="10" stroke-dasharray="" stroke-dashoffset="0" font-family="Sans Serif" font-weight="normal" text-anchor="start" style="mix-blend-mode: normal"><tspan x="0" dy="0">200Q Candy</tspan></text><text transform="translate(223.32935,184.15819) scale(0.07993,0.07993)" font-size="40" xml:space="preserve" fill="#ffffff" fill-rule="nonzero" stroke="none" stroke-width="1" stroke-linecap="butt" stroke-linejoin="miter" stroke-miterlimit="10" stroke-dasharray="" stroke-dashoffset="0" font-family="Sans Serif" font-weight="normal" text-anchor="start" style="mix-blend-mode: normal"><tspan x="0" dy="0">Increase CPS by 5Q</tspan></text><path d="M208.73755,179.53479c0,-3.07208 2.49042,-5.5625 5.5625,-5.5625c3.07208,0 5.5625,2.49042 5.5625,5.5625c0,3.07208 -2.49042,5.5625 -5.5625,5.5625c-3.07208,0 -5.5625,-2.49042 -5.5625,-5.5625z" fill="#ffcb00" stroke-width="0"/></g></g></svg>